<?xml version="1.0" encoding="utf-8"?>
<!-- Generator: Adobe Illustrator 22.1.0, SVG Export Plug-In . SVG Version: 6.00 Build 0)  -->
<svg version="1.1" id="Layer_1" xmlns="http://www.w3.org/2000/svg" xmlns:xlink="http://www.w3.org/1999/xlink" x="0px" y="0px"
	 viewBox="0 0 500 302" style="enable-background:new 0 0 500 302;" xml:space="preserve">
<style type="text/css">
	.st0{fill:#2D2A26;}
	.st1{fill:#F5333F;}
</style>
<g>
	<path class="st0" d="M259,116.6c-7.6,0-15.1,1.8-18.9,3.4c-4.8,2.1-6.5,3.4-6.5,9.3l0,47.8l15.3,0l0-45.1c1.1-0.4,4.8-1.7,10.3-1.7
		c6.5,0,8.8,4.6,8.8,8.6l0,38.3l15.1,0l0-36.5C283.2,124.3,275.5,116.6,259,116.6"/>
	<path class="st0" d="M409.7,116.7c-6.9,0-13.2,2.5-17.2,4.5c-3.8-3-9-4.5-15.7-4.5c-7,0-15,2-18.9,3.9c-4,1.9-5.3,3.5-5.3,8.9
		l0,47.8l15.3,0l0-45.1c1.1-0.4,4.9-1.7,9-1.7c5.2,0,7.8,2.9,7.8,8.6l0,38.3h3.1l10,0h2l0-36.5c0-3.1-0.3-5.8-0.8-8.3
		c1.9-0.8,5.6-2,9.7-2c5.2,0,7.8,2.9,7.8,8.6l0,38.3l15.1,0l0-38.1C431.7,123.8,424.7,116.7,409.7,116.7"/>
	<path class="st0" d="M488.1,164.5l0-28.8c0-11.9-8.5-19-22.7-19c-7,0-14.2,1.8-19.1,3.2l-0.5,0.1l2.3,12.7l0.6-0.2
		c4.6-1.2,11.2-2.7,16-2.7c8.3,0,9.2,5.4,9.2,7.7c0,1.7-0.1,3.3-0.1,4.1l-11.8,0c-13.6,0-22,7-22,18.2c0,12.6,10.4,18.2,20.7,18.2
		c6.4,0,10.5-1.5,13.4-2.5c1.9-0.7,3.4-1.2,4.9-1.2c2.6,0,3.6,0.7,6.6,2.5c0.8,0.5,1.7,1.1,2.9,1.8l0.5,0.3l5.5-10.5L488.1,164.5z
		 M473.8,152.5l0,11.4c-0.9,0.1-1.7,0.4-2.6,0.8c-1.8,0.7-3.9,1.7-8.1,1.7c-5.7,0-8.2-2-8.2-6.5c0-5.4,4.9-7.4,9.1-7.4L473.8,152.5z
		"/>
	<path class="st0" d="M339,135.7c0-11.9-8.5-19-22.7-19c-7,0-14.2,1.8-19.1,3.2l-0.5,0.1l2.3,12.7l0.6-0.2c4.6-1.2,11.2-2.7,16-2.7
		c8.3,0,9.2,5.4,9.2,7.7c0,1.7-0.1,3.3-0.1,4.1l-11.8,0c-13.6,0-22,7-22,18.2c0,12.6,10.4,18.2,20.7,18.2c6.4,0,10.5-1.5,13.5-2.5
		c1.9-0.7,3.4-1.2,4.8-1.2c2.6,0,3.6,0.7,6.6,2.5c0.8,0.5,1.7,1.1,2.9,1.8l0.5,0.3l5.5-10.5l-6.4-4L339,135.7z M324.8,152.4l0,11.4
		c-0.9,0.1-1.7,0.4-2.6,0.8c-1.7,0.7-3.9,1.7-8.1,1.7c-5.7,0-8.2-2-8.2-6.5c0-5.4,4.9-7.4,9.1-7.4L324.8,152.4z"/>
	<path class="st0" d="M270.4,76.2L270.4,76.2l-1.3,0c-0.7,0-1.4-0.1-2.2-0.1c-3.4-0.3-6.7-1.4-9.7-3.3c-3.4-2.2-4.9-4.9-4.9-9.1
		c0-3.1,1-5.2,3.7-7.5c1.9-1.7,5.4-2.7,8.9-2.7c4.8,0,8.4,0.9,9.6,1.2c0.4,0.1,0.5,0.1,0.6,0.1l0.9-0.2l3.3-11.2l-1.1-0.3
		c-0.3-0.1-6.9-2.2-15.5-2.2c-7,0-13.1,2-17.5,5.8c-4.7,4-7.4,10.3-7.4,17.3c0,5.5,1.9,11,4.9,15c-3.5,0.8-6.4,1.7-8.5,2.4l-1.1,0.3
		L237,95l1.1-0.4c5.5-1.8,16.4-4.8,28.1-4.8c5,0,9.7,0.5,13.9,1.6l1.1,0.3l3.4-13.3l-1.1-0.3C279.4,77.1,275,76.5,270.4,76.2"/>
	<path class="st0" d="M472.1,69.4c0,4-1.4,9.3-13.4,9.3l-0.8,0c-8.4,0-9.5-3.3-9.5-6.1c0-17.3-10.4-28.9-26-28.9
		c-15.8,0-25.5,10.5-26.5,28.8c-0.4,5.2-4.6,5.8-11,6.1l-1.1,0.1l-57.8,0c-10.1,0-12.2-3.9-12.2-9.7l0-52.6L297,18.3l0,51
		c0,15.4,9.9,24.4,27.3,25l63.7,0.1c4.7,0,8.8-0.8,12.3-2.2c4.4,7.7,12.1,12,22,12.1h0c10.1,0,17.7-4.4,22.1-12.7
		c4.4,2,9.3,2.5,13.1,2.7v0.1l1.1,0h0l1.2,0v-0.1l2.3,0C479,93.2,489,84.1,489,70.1l0-29.2l-16.9,1.9L472.1,69.4z M432.2,74.1
		c0,10.8-3.2,16.1-9.7,16.1c-4.2,0-9.7-1.7-9.7-16.5c0-15.1,5.6-16.8,9.7-16.8C426.7,56.9,432.2,58.7,432.2,74.1"/>
	<path class="st0" d="M479.6,35.1c5.2,0,9.5-4.2,9.5-9.4c0-5.2-4.3-9.5-9.5-9.5c-5.2,0-9.5,4.2-9.5,9.4
		C470.1,30.9,474.4,35.1,479.6,35.1"/>
	<path class="st1" d="M167.2,16.4c0,0,21.5-3.1,27.2,17.7c1.8,6.6,0.8,22.8-19.1,32.5C180.5,43.6,176.3,27.3,167.2,16.4"/>
	<path class="st1" d="M101.1,131.1c20.2,18.3,54.4,23.9,70.4,13.7c20.6-13.1,23.6-34.9,23.6-34.9c-6.3,6.1-32.9,16.7-58.7,11.2
		C121.1,130.3,106.6,130.7,101.1,131.1"/>
	<path class="st1" d="M148.5,109.7c17.5,3.5,39.4-5.6,46.1-16.2c8.7-13.8,4.6-36.8,4.6-36.8s-6.2,21.6-29.3,27.1
		C165,96.7,153.6,106.3,148.5,109.7"/>
	<path class="st1" d="M148.7,39.7c0,19.5-12.6,35.2-28.2,35.2c-15.6,0-28.2-15.8-28.2-35.3c0-19.5,12.6-35.2,28.2-35.2
		C136.1,4.5,148.7,20.3,148.7,39.7"/>
	<path class="st1" d="M50.3,18.7c0,0-25.6,23.5-16.6,65.9c9.1,42.4,48.9,58.7,75.7,68.5c28.2,10.3,53,12.4,53,12.4
		S129.1,205.3,61,182.7C-7.2,160.2,4.3,74.7,9.8,56.1C9.8,56.1,20.7,7.3,50.3,18.7"/>
	<path class="st0" d="M15.5,247.1c-6.3,0-9.5-4.9-9.5-11.6c0-6.7,3.1-11.5,9.5-11.5c6.3,0,9.6,4.9,9.4,11.5
		C25.1,242.1,21.7,247.1,15.5,247.1 M15.5,229.6c-2.5,0-3.7,2-3.7,5.9c0,3.9,1.2,6,3.7,6c2.5,0,3.8-2,3.8-6
		C19.3,231.6,18,229.6,15.5,229.6"/>
	<path class="st0" d="M42.1,247.2l-5.4,0c-4.7,0-6.5-3.4-6.5-7l0-23.3l5.8-2.1l0,24.4c0,1.3,0.4,2.2,1.9,2.2l4.1,0V247.2z"/>
	<rect x="41" y="241.4" class="st0" width="8.3" height="5.8"/>
	<rect x="48.2" y="241.4" class="st0" width="8.3" height="5.8"/>
	<rect x="55.3" y="241.4" class="st0" width="8.3" height="5.8"/>
	<rect x="62.5" y="241.4" class="st0" width="8.3" height="5.8"/>
	<rect x="69.7" y="241.4" class="st0" width="8.3" height="5.8"/>
	<path class="st0" d="M77.8,258.4c-1.6,0-3-1.6-3-3.4c0-1.9,1.4-3.5,3-3.5c1.7,0,3.1,1.6,3.1,3.5C80.9,256.8,79.5,258.4,77.8,258.4
		 M96.1,247.2h-3.4c-2.1,0-4.2-0.8-5.9-2.4c-1.6,1.6-3.6,2.4-6,2.4h-3.9v-5.8h3.7c2.2,0,3.3-1.2,3.3-3.7l0-10.2l5.8-2.1l0,12.4
		c0,2.4,1.3,3.6,3.4,3.6h3V247.2z M85.9,258.4c-1.6,0-3-1.6-3-3.4c0-1.9,1.4-3.5,3-3.4c1.7,0,3.1,1.6,3.1,3.5
		C89,256.8,87.5,258.4,85.9,258.4"/>
	<rect x="95" y="241.4" class="st0" width="8.3" height="5.8"/>
	<rect x="102.2" y="241.4" class="st0" width="8.3" height="5.8"/>
	<rect x="109.4" y="241.4" class="st0" width="8.3" height="5.8"/>
	<rect x="116.6" y="241.4" class="st0" width="8.3" height="5.8"/>
	<rect x="123.8" y="241.4" class="st0" width="8.3" height="5.8"/>
	<path class="st0" d="M161.9,247.2l-1.4,0c-2.2,0-4.1-0.7-5.5-2.1c-1.3,3.4-4.2,5.7-8.5,5.7c-4.1,0-6.9-2.1-8.3-5.3
		c-1.3,1.1-3,1.6-5,1.6l-2.2,0v-5.8l2,0c2.5,0,3.8-1.2,4.2-3.5c0.6-5.1,3.7-9.4,9.4-9.4c5.6,0,8.7,4.2,9.3,9.3
		c0.4,2.5,1.8,3.7,4.3,3.7l1.7,0V247.2z M150.2,239.6c0-3.1-1.2-5.5-3.7-5.5c-2.5,0-3.7,2.4-3.7,5.5c0,3.5,1.2,5.6,3.7,5.6
		C149,245.2,150.2,243.1,150.2,239.6"/>
	<rect x="160.8" y="241.4" class="st0" width="8.3" height="5.8"/>
	<rect x="168" y="241.4" class="st0" width="8.3" height="5.8"/>
	<rect x="175.2" y="241.4" class="st0" width="8.3" height="5.8"/>
	<rect x="182.4" y="241.4" class="st0" width="8.3" height="5.8"/>
	<rect x="189.6" y="241.4" class="st0" width="8.3" height="5.8"/>
	<rect x="196.8" y="241.4" class="st0" width="8.3" height="5.8"/>
	<path class="st0" d="M216.9,238c0,5.6-3.3,9.2-9,9.2H204v-5.8h3.7c2.2,0,3.4-1.2,3.4-3.7l0-20.8l5.8-2.1L216.9,238z"/>
	<polygon class="st0" points="228,247.2 222.1,247.2 222.2,216.9 228,214.9 	"/>
	<path class="st0" d="M275.6,238c0,5.6-3.3,9.2-9,9.2h-18.5c-6.4,0-9-4-9-9.4l0-5l5.8-5.4l0,10.4c0,2.4,1.1,3.7,3.3,3.7l18.2,0
		c2.2,0,3.4-1.2,3.4-3.7l0-11.7l5.8-2.1V238z M253.4,228.5c-1.6,0-3-1.6-3-3.4c0-1.9,1.4-3.5,3-3.5c1.7,0,3.1,1.6,3.1,3.5
		C256.4,226.9,255,228.5,253.4,228.5 M261.4,228.5c-1.6,0-3-1.6-3-3.4c0-1.9,1.4-3.5,3-3.5c1.7,0,3.1,1.6,3.1,3.5
		C264.5,226.9,263.1,228.5,261.4,228.5"/>
	<path class="st0" d="M292.6,247.2h-5.4c-4.7,0-6.5-3.4-6.5-7l0-23.3l5.8-2.1l0,24.4c0,1.3,0.4,2.2,1.9,2.2h4.1V247.2z"/>
	<rect x="291.5" y="241.5" class="st0" width="8.3" height="5.8"/>
	<rect x="298.7" y="241.5" class="st0" width="8.3" height="5.8"/>
	<rect x="305.9" y="241.5" class="st0" width="8.3" height="5.8"/>
	<rect x="313.1" y="241.5" class="st0" width="8.3" height="5.8"/>
	<rect x="320.3" y="241.5" class="st0" width="8.3" height="5.8"/>
	<path class="st0" d="M327.5,247.2v-5.8h2.9c2.3,0,3.4-1.3,3.4-3.9l0-1.6c-0.1-6.8,3-11.6,9.4-11.6c6.4,0,9.4,4.9,9.3,11.6
		c0.1,6.7-3,11.6-9.3,11.6c-2.4,0-4.6-0.8-6.2-2.2c-1.6,1.6-3.5,1.9-5.4,1.9L327.5,247.2z M343.3,230.2c-2.3,0-3.5,2.1-3.5,5.8
		c0,3.7,1.2,5.8,3.5,5.8c2.3,0,3.4-2.1,3.5-5.8C346.7,232.3,345.5,230.2,343.3,230.2"/>
	<path class="st0" d="M381.9,247.2l-25.4,0l3.4-5.8l10.2,0l0-7c0-3.2-2.2-4.7-4.5-4.5c-1.3,0.1-3.3,0.8-5.5,3.5v-6
		c1.6-1.7,3.5-2.9,6-3.3c6-0.8,9.9,3.7,9.9,9.3l0,7.8l6.1,0V247.2z"/>
	<rect x="380.8" y="241.5" class="st0" width="8.3" height="5.8"/>
	<rect x="388" y="241.5" class="st0" width="8.3" height="5.8"/>
	<rect x="395.2" y="241.5" class="st0" width="8.3" height="5.8"/>
	<rect x="402.3" y="241.5" class="st0" width="8.3" height="5.8"/>
	<rect x="409.5" y="241.5" class="st0" width="8.3" height="5.8"/>
	<rect x="416.7" y="241.5" class="st0" width="8.3" height="5.8"/>
	<rect x="423.9" y="241.5" class="st0" width="8.3" height="5.8"/>
	<path class="st0" d="M461.1,247.3l-30,0v-5.8l18.3,0v-2.7c0-4.5-1.3-8.6-5.5-8.6c-2.1,0-4.7,1-6.7,3.4l-3.6-3.9
		c2.2-3.2,6.2-5.3,10.2-5.3c7.1,0,11.5,5.5,11.3,14v3.2h5.8V247.3z M443.9,219.6c-1.6,0-3-1.6-3-3.4c0-1.9,1.4-3.5,3-3.5
		c1.7,0,3.1,1.6,3.1,3.5C447,218,445.5,219.6,443.9,219.6"/>
	<rect x="460" y="241.5" class="st0" width="8.3" height="5.8"/>
	<rect x="467.2" y="241.5" class="st0" width="8.3" height="5.8"/>
	<rect x="474.4" y="241.5" class="st0" width="8.3" height="5.8"/>
	<path class="st0" d="M494.5,238.1c0,5.6-3.3,9.2-9,9.2l-3.9,0v-5.8h3.7c2.2,0,3.4-1.2,3.4-3.7l0-20.8l5.8-2.1L494.5,238.1z"/>
	<polygon class="st1" points="5.5,270 11.4,270 15.2,287.1 15.3,287.1 20.4,270 25.4,270 30.5,287.6 30.5,287.6 34.6,270 40.1,270 
		32.9,296.7 28.1,296.7 22.8,278.2 22.7,278.2 17.3,296.7 12.7,296.7 	"/>
	<path class="st1" d="M64.8,270h4.4l10.6,26.8h-6.1l-2.1-5.7l-9.5,0l-2,5.7h-5.9L64.8,270z M66.8,277.8l-3,8.3l6,0L66.8,277.8z"/>
	<polygon class="st1" points="99,275.2 92,275.2 92,270 111.3,270 111.3,275.2 104.3,275.2 104.3,296.7 98.9,296.7 	"/>
	<polygon class="st1" points="129.3,270 145.9,270 145.9,275.4 134.7,275.4 134.7,280.4 145.3,280.4 145.3,285.9 134.7,285.9 
		134.7,291.3 146.5,291.3 146.5,296.7 129.3,296.7 	"/>
	<path class="st1" d="M166,270h9.4c1.2,0,2.4,0.1,3.5,0.4c1.1,0.3,2.1,0.7,2.9,1.3c0.8,0.6,1.5,1.4,2,2.5c0.5,1,0.7,2.3,0.7,3.9
		c0,1.9-0.4,3.5-1.3,4.8c-0.9,1.3-2.2,2.2-3.9,2.5l6.2,11.3h-6.4l-5.1-10.7h-2.7v10.7H166L166,270z M171.3,281.1h3.2
		c0.5,0,1,0,1.5-0.1c0.5,0,1-0.2,1.5-0.3c0.4-0.2,0.8-0.5,1.1-0.9c0.3-0.4,0.4-1,0.4-1.7c0-0.7-0.1-1.2-0.4-1.6
		c-0.3-0.4-0.6-0.7-1-0.9c-0.4-0.2-0.8-0.4-1.3-0.4c-0.5-0.1-1-0.1-1.5-0.1h-3.5V281.1z"/>
	<path class="st1" d="M240.8,276.6c-0.4-0.6-1-1.1-1.8-1.3c-0.8-0.3-1.5-0.4-2.1-0.4c-0.4,0-0.8,0.1-1.2,0.2
		c-0.4,0.1-0.8,0.3-1.2,0.5c-0.4,0.2-0.7,0.5-0.9,0.9c-0.2,0.4-0.3,0.8-0.3,1.3c0,0.8,0.3,1.4,0.8,1.9c0.6,0.4,1.2,0.8,2.1,1.1
		c0.8,0.3,1.7,0.6,2.7,0.9c1,0.3,1.9,0.7,2.7,1.3c0.8,0.6,1.5,1.3,2.1,2.2c0.6,0.9,0.8,2.2,0.8,3.7c0,1.5-0.3,2.8-0.8,3.9
		c-0.5,1.1-1.2,2-2,2.8c-0.9,0.7-1.9,1.3-3,1.6c-1.1,0.4-2.3,0.5-3.6,0.5c-1.6,0-3-0.3-4.4-0.8c-1.4-0.5-2.6-1.4-3.8-2.6l3.8-4.6
		c0.6,0.8,1.2,1.4,2.1,1.9c0.8,0.4,1.7,0.7,2.6,0.7c0.4,0,0.9-0.1,1.3-0.2c0.5-0.1,0.8-0.3,1.2-0.5c0.4-0.2,0.6-0.5,0.9-0.9
		c0.2-0.3,0.3-0.8,0.3-1.2c0-0.8-0.3-1.4-0.8-1.9c-0.6-0.5-1.3-0.9-2.1-1.2c-0.8-0.3-1.8-0.7-2.8-1c-1-0.3-1.9-0.8-2.8-1.3
		c-0.8-0.6-1.6-1.3-2.1-2.2c-0.6-0.9-0.8-2.1-0.8-3.6c0-1.4,0.3-2.7,0.8-3.8c0.5-1.1,1.2-2,2.1-2.7c0.9-0.7,1.9-1.3,3-1.6
		c1.1-0.4,2.3-0.5,3.5-0.5c1.4,0,2.7,0.2,4,0.6c1.3,0.4,2.4,1.1,3.5,2.2L240.8,276.6z"/>
	<polygon class="st1" points="263.9,270 280.4,270 280.4,275.5 269.2,275.5 269.2,280.5 279.8,280.5 279.8,285.9 269.2,285.9 
		269.2,291.3 281,291.3 281,296.8 263.9,296.8 	"/>
	<path class="st1" d="M300.5,270l9.4,0c1.2,0,2.4,0.1,3.5,0.4c1.1,0.3,2.1,0.7,2.9,1.3c0.8,0.6,1.5,1.4,2,2.5c0.5,1,0.7,2.3,0.7,3.9
		c0,1.9-0.4,3.5-1.3,4.8c-0.9,1.3-2.2,2.2-3.9,2.5l6.2,11.3l-6.4,0l-5.1-10.7h-2.7v10.7l-5.4,0L300.5,270z M305.9,281.1h3.2
		c0.5,0,1,0,1.5-0.1c0.5,0,1-0.2,1.5-0.3c0.4-0.2,0.8-0.5,1.1-0.9c0.3-0.4,0.4-1,0.4-1.7c0-0.7-0.1-1.2-0.4-1.6
		c-0.3-0.4-0.6-0.7-1-0.9c-0.4-0.2-0.8-0.4-1.3-0.4c-0.5-0.1-1-0.1-1.5-0.1h-3.5V281.1z"/>
	<polygon class="st1" points="335.5,270 341.7,270 347.7,287.6 347.7,287.6 353.9,270 359.6,270 349.6,296.8 345.3,296.8 	"/>
	<rect x="377.2" y="270.1" class="st1" width="5.4" height="26.8"/>
	<path class="st1" d="M418.6,277c-0.5-0.7-1.2-1.2-1.9-1.6c-0.8-0.4-1.7-0.6-2.7-0.6c-1,0-1.9,0.2-2.8,0.6c-0.9,0.4-1.6,1-2.2,1.8
		c-0.6,0.8-1.1,1.7-1.5,2.7c-0.4,1.1-0.5,2.2-0.5,3.4c0,1.3,0.2,2.4,0.5,3.5c0.4,1,0.8,2,1.5,2.7c0.6,0.8,1.3,1.4,2.2,1.8
		c0.8,0.4,1.7,0.6,2.7,0.6c1.1,0,2.1-0.3,2.9-0.8c0.8-0.5,1.5-1.2,2.1-2.1l4.5,3.7c-1,1.6-2.3,2.8-3.9,3.5c-1.6,0.8-3.2,1.1-4.9,1.1
		c-1.9,0-3.7-0.3-5.3-1c-1.6-0.7-3-1.6-4.2-2.8c-1.2-1.2-2.1-2.7-2.7-4.4c-0.7-1.7-1-3.7-1-5.8c0-2.1,0.3-4.1,1-5.8
		c0.7-1.7,1.6-3.2,2.7-4.4c1.2-1.2,2.6-2.2,4.2-2.8c1.6-0.7,3.4-1,5.3-1c0.7,0,1.4,0.1,2.2,0.2c0.7,0.1,1.5,0.4,2.2,0.7
		c0.7,0.3,1.4,0.7,2.1,1.2c0.7,0.5,1.3,1.1,1.8,1.9L418.6,277z"/>
	<polygon class="st1" points="441.6,270.1 458.1,270.1 458.1,275.5 447,275.5 447,280.5 457.5,280.5 457.5,285.9 446.9,285.9 
		446.9,291.4 458.8,291.4 458.8,296.8 441.6,296.8 	"/>
	<path class="st1" d="M490.3,276.6c-0.4-0.6-1-1.1-1.8-1.3c-0.8-0.3-1.5-0.4-2.1-0.4c-0.4,0-0.8,0-1.2,0.1c-0.4,0.1-0.8,0.3-1.2,0.5
		c-0.4,0.2-0.7,0.5-0.9,0.9c-0.2,0.4-0.3,0.8-0.3,1.3c0,0.8,0.3,1.4,0.8,1.9c0.6,0.4,1.2,0.8,2.1,1.1c0.8,0.3,1.7,0.6,2.7,0.9
		c1,0.3,1.9,0.7,2.7,1.3c0.8,0.6,1.5,1.3,2.1,2.2c0.6,0.9,0.8,2.2,0.8,3.7c0,1.5-0.3,2.8-0.8,3.9c-0.5,1.1-1.2,2-2,2.8
		c-0.9,0.7-1.9,1.3-3,1.6c-1.1,0.4-2.3,0.5-3.6,0.5c-1.6,0-3-0.3-4.4-0.8c-1.4-0.5-2.6-1.4-3.8-2.6l3.8-4.6c0.6,0.8,1.2,1.4,2.1,1.9
		c0.8,0.4,1.7,0.7,2.6,0.7c0.4,0,0.9-0.1,1.3-0.2c0.5-0.1,0.8-0.3,1.2-0.5c0.4-0.2,0.6-0.5,0.9-0.9c0.2-0.4,0.3-0.8,0.3-1.2
		c0-0.8-0.3-1.4-0.8-1.9c-0.6-0.5-1.3-0.9-2.1-1.2c-0.8-0.3-1.8-0.7-2.8-1c-1-0.3-1.9-0.8-2.8-1.3c-0.8-0.6-1.6-1.3-2.1-2.2
		c-0.6-0.9-0.8-2.1-0.8-3.6c0-1.4,0.3-2.7,0.8-3.8c0.5-1.1,1.2-2,2.1-2.7c0.9-0.7,1.8-1.3,3-1.6c1.1-0.4,2.3-0.5,3.5-0.5
		c1.4,0,2.7,0.2,4,0.6c1.3,0.4,2.4,1.1,3.5,2.2L490.3,276.6z"/>
</g>
</svg>
