<svg id="Layer_1" data-name="Layer 1" xmlns="http://www.w3.org/2000/svg" viewBox="0 0 850 515"><defs><style>.cls-1{fill:#e4a32b;}.cls-2{fill:#fff;}</style></defs><title>icon-warmup</title><rect class="cls-1" y="0.5" width="850" height="515"/><path class="cls-2" d="M552.47,111H310.17a25.93,25.93,0,0,0-25.84,25.84V321.73a25.94,25.94,0,0,0,25.84,25.84h82l-4,19.46a26,26,0,0,1-25.36,20.73H339.52a8.62,8.62,0,0,0,0,17.23h183.6a8.62,8.62,0,0,0,0-17.23H499.67A25.78,25.78,0,0,1,474.47,367l-4-19.46h82a25.94,25.94,0,0,0,25.84-25.84V136.85A25.93,25.93,0,0,0,552.47,111ZM457.56,370.38a43,43,0,0,0,7.82,17.38H397.26a43,43,0,0,0,7.82-17.38l4.63-22.81h43.22Zm103.52-48.65a8.57,8.57,0,0,1-8.61,8.61H310.17a8.57,8.57,0,0,1-8.61-8.61V136.85a8.57,8.57,0,0,1,8.61-8.61h242.3a8.57,8.57,0,0,1,8.61,8.61Z"/><path class="cls-2" d="M391.2,254.57h80.24a8.58,8.58,0,0,0,8.61-8.61v-5.75a48.91,48.91,0,0,0-24.88-42.59,31.5,31.5,0,1,0-47.7,0,48.91,48.91,0,0,0-24.88,42.59V246a8.58,8.58,0,0,0,8.61,8.61Zm25.68-77.52a14.36,14.36,0,1,1,14.36,14.35,14.4,14.4,0,0,1-14.36-14.35Zm14.36,31.58a31.71,31.71,0,0,1,31.58,28.71h-63a31.56,31.56,0,0,1,31.42-28.71Z"/><path class="cls-2" d="M534.6,284.4H376.85v-2.87a8.69,8.69,0,0,0-8.62-8.62,8.58,8.58,0,0,0-8.61,8.62v2.87H328a8.62,8.62,0,1,0,0,17.23h31.58v2.87a8.58,8.58,0,0,0,8.61,8.61,8.68,8.68,0,0,0,8.62-8.61v-2.87H534.6a8.62,8.62,0,1,0,0-17.23Z"/></svg>