<svg id="Layer_1" data-name="Layer 1" xmlns="http://www.w3.org/2000/svg" viewBox="0 0 99 98"><defs><style>.cls-1{fill:#e4a229;}.cls-2{fill:#fff;}</style></defs><title>icon-hrtech</title><rect class="cls-1" x="41.52" y="41.02" width="15.97" height="15.97"/><path class="cls-2" d="M49.5,85a2.41,2.41,0,1,0,2.44,2.4A2.42,2.42,0,0,0,49.5,85ZM76.66,73.75a2.41,2.41,0,1,0,0,4.82,2.41,2.41,0,0,0,0-4.82ZM22.3,78.57a2.44,2.44,0,0,0,2.48-2.34,2.43,2.43,0,1,0-4.85-.1,2.44,2.44,0,0,0,2.37,2.44ZM13.52,49a2.41,2.41,0,1,0-2.44,2.38A2.42,2.42,0,0,0,13.52,49ZM76.59,24.25a2.41,2.41,0,1,0,.14-4.82,2.41,2.41,0,0,0-.14,4.82ZM19.93,21.77a2.43,2.43,0,0,0,4.85.21,2.46,2.46,0,0,0-2.34-2.55,2.49,2.49,0,0,0-2.51,2.34ZM49.53,8.21a2.46,2.46,0,0,0-2.44,2.37A2.49,2.49,0,0,0,49.5,13a2.46,2.46,0,0,0,2.44-2.41,2.43,2.43,0,0,0-2.41-2.4ZM90.33,49a2.41,2.41,0,1,0-4.81,0,2.41,2.41,0,1,0,4.81,0Zm-40-44.28A7,7,0,0,1,54,6.81,5.82,5.82,0,0,1,51.91,16c-.53.21-.7.45-.67,1,0,2,0,4,0,6.1a26.12,26.12,0,0,1,15.41,6.39c1.57-1.54,3.11-3.07,4.57-4.61a.73.73,0,0,0,0-.66A5.87,5.87,0,0,1,82,19.33a5.86,5.86,0,0,1-7.43,8,.87.87,0,0,0-1.11.21c-1.33,1.36-2.72,2.72-4.08,4.08,0,.07-.07.14-.14.25a2.92,2.92,0,0,1,.35.76,1.77,1.77,0,0,1-.73,2,1.8,1.8,0,0,1-2.13-.35,42.26,42.26,0,0,0-4.92-4.19c-7.91-4.88-16.07-5.12-24-.28S26.28,42,27.12,51.09s5.89,15.76,14.57,19S58.57,71.45,65.36,65A21.09,21.09,0,0,0,72,50.36c0-.91,0-1.78,0-2.68,0-1.26.53-2.06,1.5-2.17s1.71.46,2,1.75c2.12,0,4.28,0,6.45,0,.2,0,.45-.39.55-.63a5.9,5.9,0,0,1,10.71,0,13.29,13.29,0,0,1,.52,1.54v1.92c-.07.24-.21.45-.28.69a5.62,5.62,0,0,1-4.64,4c-2.33.42-4.49-.31-5.57-2.33-1-1.68-2.06-1.85-3.6-1.68H75.48a26.23,26.23,0,0,1-6.35,15.41l4.22,4.22a1,1,0,0,0,1.29.32,5.85,5.85,0,0,1,6.24,9.55,5.94,5.94,0,0,1-7.39.87,5.83,5.83,0,0,1-2.3-6.9,1.11,1.11,0,0,0-.35-1.47,6.29,6.29,0,0,1-.73-.73c-1.15-1.11-2.27-2.26-3.42-3.42A26.53,26.53,0,0,1,51.24,75c0,2.09,0,4.11,0,6.1,0,.55.14.76.67,1a5.8,5.8,0,0,1,2.75,8.12,6.47,6.47,0,0,1-4.29,3.07H48.49c-.07,0-.14-.14-.21-.14A5.87,5.87,0,0,1,47.37,82a.73.73,0,0,0,.39-.52c0-2.13,0-4.26,0-6.45a26.77,26.77,0,0,1-15.44-6.39c-1.47,1.47-2.83,2.86-4.22,4.22a1.07,1.07,0,0,0-.28,1.33,5.86,5.86,0,1,1-8.13-3.21,5.6,5.6,0,0,1,5.16-.07c1.68-1.67,3.28-3.24,4.92-4.88a26.22,26.22,0,0,1-6.28-15.24c-2.05,0-4.07,0-6.06,0a.91.91,0,0,0-1,.7,5.84,5.84,0,0,1-8.13,2.75,6.51,6.51,0,0,1-3.1-4.29V48.13a1.48,1.48,0,0,0,.14-.32C6.27,45,8,43.35,10.8,43.14a5.91,5.91,0,0,1,5.79,3.73c.07.18.28.39.45.39,2.16,0,4.29,0,6.52,0a26.38,26.38,0,0,1,6.38-15.41c-1.32-1.33-2.65-2.55-3.87-3.87a1.62,1.62,0,0,0-2-.56,5.7,5.7,0,0,1-6.38-2.06,5.88,5.88,0,0,1-.28-6.59,5.81,5.81,0,0,1,5.93-2.68,5.88,5.88,0,0,1,4.56,7.84,1.2,1.2,0,0,0,0,.91c1.46,1.53,3,3,4.53,4.57a27.05,27.05,0,0,1,7.22-4.47A27.43,27.43,0,0,1,47.79,23c0-2.05,0-4,0-6a1,1,0,0,0-.73-1.12,5.84,5.84,0,0,1-2.06-9,7.14,7.14,0,0,1,3.66-2.16Z"/><path class="cls-2" d="M57.22,41.29H41.78V56.74H57.22Zm-19,6V44H35a1.7,1.7,0,0,1-1.92-1.74A1.74,1.74,0,0,1,35,40.56h3a5.84,5.84,0,0,1,.73-2.16c.45-.49,1.36-.59,2.27-.94V35.19a8,8,0,0,1,.07-1.29A1.71,1.71,0,0,1,43,32.54a1.74,1.74,0,0,1,1.54,1.64c0,1.15,0,2.3,0,3.52h3.28v-.76c0-1.71,0-3.42,0-5.13a1.73,1.73,0,1,1,3.45,0V37.7H54.5V34.6c0-1.29.67-2.06,1.71-2.06A1.85,1.85,0,0,1,58,34.6v2.93c.76.28,1.67.31,2.16.77s.59,1.36.94,2.26h3a1.83,1.83,0,0,1,1.89,1.33A1.71,1.71,0,0,1,64.23,44c-.56,0-1.15,0-1.71,0h-1.7v3.25h5c.35,0,.66,0,1,0A1.76,1.76,0,0,1,68.56,49a1.71,1.71,0,0,1-1.78,1.71c-2,0-3.94,0-6,0V54h2.47c1.85,0,2.65.52,2.65,1.7s-.84,1.78-2.61,1.78H61a6.89,6.89,0,0,1-.8,2.2,7.1,7.1,0,0,1-2.23.87V63.4c0,1.25-.67,2.06-1.71,2.06s-1.75-.74-1.75-2c0-1,0-2,0-2.92,0-.07,0-.11-.07-.21H51.23v5.92A1.74,1.74,0,0,1,49.55,68a1.71,1.71,0,0,1-1.77-1.82c0-1.77,0-3.59,0-5.37,0-.17,0-.31,0-.55H44.5v3.06c0,1.36-.66,2.13-1.75,2.1s-1.7-.84-1.7-2.06V60.47a5.65,5.65,0,0,1-2.17-.77,5.8,5.8,0,0,1-.9-2.26c-.87,0-2,0-3.17,0a1.74,1.74,0,0,1-1.71-1.22,1.52,1.52,0,0,1,.55-1.78A2.74,2.74,0,0,1,34.94,54c1.05-.07,2.13,0,3.25,0V50.74H32.57a4.17,4.17,0,0,1-1-.14,1.73,1.73,0,0,1-1.08-2,1.76,1.76,0,0,1,1.68-1.36c1.39,0,2.78,0,4.14,0,.63,0,1.22,0,1.92,0Z"/><path class="cls-2" d="M49.52,50.71a1.7,1.7,0,0,1-1.75-1.64,1.76,1.76,0,0,1,1.75-1.78A1.82,1.82,0,0,1,51.23,49a1.76,1.76,0,0,1-1.71,1.68Z"/></svg>