<svg id="Layer_1" data-name="Layer 1" xmlns="http://www.w3.org/2000/svg" viewBox="0 0 99 98"><defs><style>.cls-1{fill:#e4a229;}.cls-2{fill:#1f1c1d;}</style></defs><title>icon-warmup4</title><path class="cls-1" d="M44.27,59.2c2.67,0,5.19.11,7.72,0a4.68,4.68,0,0,1,4.22,2,12.68,12.68,0,0,1,1.73,3.35,3.49,3.49,0,0,0,1.3,1.74c4.29,2.88,8.62,5.8,12.94,8.69,2.13,1.44,4.26,2.88,6.46,4.32-.87,1.48-1.7,2.89-2.49,4.3-.25-.11-.43-.15-.58-.22C69.8,80.59,64,77.85,58.23,75.14a19.27,19.27,0,0,1-8-7c-1.66-2.53-3.36-5.05-5-7.58-.26-.43-.54-.83-.87-1.37Z"/><path class="cls-1" d="M23.61,83a2.45,2.45,0,0,1-.08-.44c0-4.36,0-8.76,0-13.12a5.22,5.22,0,0,1,3.64-5c1.73-.68,3.5-1.26,5.27-1.87,2.63-.94,5.23-1.88,7.9-2.82,1.4,2.13,2.81,4.26,4.25,6.39a4.06,4.06,0,0,1-.76.21c-4.32,1.16-8.65,2.28-13,3.39a2,2,0,0,0-1.62,1.77c-.51,3.5-1,7-1.48,10.42,0,.26-.25.62-.47.65-1.19.18-2.45.29-3.71.44Z"/><path class="cls-2" d="M39.91,24.8,35,24.37c.47-1.81,3.06-3.54,5.19-3.36-.07,1.3-.18,2.6-.25,3.79Zm-.69,9.7a5.58,5.58,0,0,1-4.69-6.42c1.09,0,2.24,0,3.36,0a2,2,0,0,1,1.69,1.77c-.07,1.51-.21,3.06-.36,4.65ZM79.11,80.81a6.93,6.93,0,0,1,3.1,2.74A5,5,0,0,0,83.44,85a5.47,5.47,0,0,1,2,2.82,3.73,3.73,0,0,1,.11,2.66l-9-5.22c.83-1.52,1.66-2.93,2.53-4.4ZM24.8,86a36.65,36.65,0,0,1-.08,4.08,1.51,1.51,0,0,1-1,1c-3.1.1-6.2.07-9.38.07A5.8,5.8,0,0,1,18.56,87c2-.47,4.07-.61,6.24-.94ZM47.7,22.45V36.56a2.52,2.52,0,0,1-2.56,2.52,2.46,2.46,0,0,1-2.46-2.52c0-1.23.11-2.49.18-3.76.15-2,.26-4,.4-6,.22-3.06.47-6.13.69-9.16s.32-6.06.54-9.09c.11-1.22.75-1.84,1.8-1.76s1.41.75,1.41,1.91V22.45ZM40.77,40.92c3.79,2.7,7.36,1.87,9.78-1.37a24.19,24.19,0,0,1,.54,2.63,21.15,21.15,0,0,1-.65,6.17c-.51,2.38-.83,4.79-1.23,7.21H40.63c.11-4.83-.11-9.63.14-14.64ZM20.94,83a2.29,2.29,0,0,1-.07-.44c0-4.36,0-8.76,0-13.12a5.19,5.19,0,0,1,3.64-5c1.74-.68,3.5-1.26,5.27-1.87,2.63-.94,5.23-1.88,7.9-2.82,1.4,2.13,2.81,4.26,4.25,6.39a4.21,4.21,0,0,1-.75.21c-4.33,1.16-8.66,2.28-13,3.39A2,2,0,0,0,26.6,71.5c-.51,3.5-1,7-1.48,10.42,0,.26-.25.62-.47.65-1.22.18-2.45.29-3.71.44ZM41.6,59.2c2.67,0,5.2.11,7.72,0a4.72,4.72,0,0,1,4.22,2,12.68,12.68,0,0,1,1.73,3.35,3.28,3.28,0,0,0,1.3,1.74c4.29,2.88,8.62,5.8,12.95,8.69,2.12,1.44,4.25,2.88,6.41,4.32-.82,1.48-1.65,2.89-2.45,4.3-.25-.11-.43-.15-.57-.22q-8.72-4.11-17.35-8.19a19.33,19.33,0,0,1-8-7c-1.66-2.53-3.36-5.05-5.05-7.58-.25-.43-.54-.83-.87-1.37Zm3.57-56A5.46,5.46,0,0,0,41,8.61c0,1.33-.14,2.66-.25,4-.11,1.59-.22,3.14-.32,4.69-.87.14-1.63.21-2.38.36a9.26,9.26,0,0,0-7.14,8.83,25.1,25.1,0,0,0,.1,3.68,9.21,9.21,0,0,0,7.18,7.76c.14,0,.25.07.47.14-.07.14-.11.25-.15.32a7.1,7.1,0,0,0-1.37,4.48c0,4.11,0,8.26,0,12.4a1.07,1.07,0,0,1-.83,1.23c-4.15,1.41-8.26,2.92-12.41,4.36a9,9,0,0,0-6.34,6.85,12.53,12.53,0,0,0-.18,2.38c0,4.22,0,8.41,0,12.63a1,1,0,0,1-.72,1.19,9.64,9.64,0,0,0-5.81,6.6c-.07.21-.1.43-.21.72-1.48,0-3,0-4.47,0a2.36,2.36,0,0,0-2.42,1.3V94.8H42.14c1-.83,1.37-1.52,1.08-2.38s-1-1.19-2.34-1.19H28.37v-2a51.33,51.33,0,0,1,.07-5.27c.36-3.39.94-6.78,1.41-10.17a1,1,0,0,1,.86-1c4.22-1.08,8.44-2.16,12.62-3.28a.9.9,0,0,1,1.16.47,22.68,22.68,0,0,0,9.91,8.58c1.52.69,3,1.41,4.55,2.13,6.67,3.25,13.56,6,19.87,9.92.25.18.5.32,1,.65H58.12c-1.23,0-1.95.43-2.2,1.3s.14,1.62,1.26,2.27H95.3V92.49a2.44,2.44,0,0,0-2.45-1.3c-1.19.07-2.38,0-3.61,0,0-1,.07-2,0-2.89a8.7,8.7,0,0,0-3.39-6,4.92,4.92,0,0,1-.79-.91,10.51,10.51,0,0,0-5.3-4.18,7.45,7.45,0,0,1-1.52-.76q-9.46-6.33-18.86-12.65a2.44,2.44,0,0,1-.86-1.12,11.4,11.4,0,0,0-4.87-6.1,1,1,0,0,1-.62-1c.29-2.13.44-4.26.91-6.35.64-3.07,1.11-6.09.39-9.2a13.45,13.45,0,0,0-2.56-5.33,2.6,2.6,0,0,1-.5-1.37c0-7.87-.08-15.73,0-23.59,0-3.21-1-5.52-4.14-6.56Z"/><path class="cls-2" d="M49.72,94.8A1.73,1.73,0,0,0,51.34,93a1.75,1.75,0,1,0-3.5.25,1.71,1.71,0,0,0,1.88,1.59Z"/></svg>