<svg id="Layer_1" data-name="Layer 1" xmlns="http://www.w3.org/2000/svg" viewBox="0 0 99 98"><defs><style>.cls-1{fill:#1f1c1d;}.cls-2{fill:#e4a229;}</style></defs><title>icon-hr-doctor-01</title><path class="cls-1" d="M29.83,85.89A43.4,43.4,0,0,1,13.1,70.56,43.05,43.05,0,1,1,49.5,90.65H48.07V77A29.41,29.41,0,0,1,22.8,35.28a29.67,29.67,0,0,1,7-9.55l0,0a1.54,1.54,0,0,1,.1-2.2h0a1.59,1.59,0,0,1,2.21.1l2,2.17A1.59,1.59,0,0,1,34,28h0a1.55,1.55,0,0,1-2.2-.11,27.23,27.23,0,0,0-6.37,8.61A26.83,26.83,0,0,0,23,47.6,26.53,26.53,0,1,0,76,47.6a26.83,26.83,0,0,0-2.42-11.13,27.23,27.23,0,0,0-6.37-8.61A1.55,1.55,0,0,1,65,28h0a1.59,1.59,0,0,1-.11-2.21l2-2.17a1.59,1.59,0,0,1,2.21-.1h0a1.54,1.54,0,0,1,.1,2.2l0,0a29.67,29.67,0,0,1,7,9.55A29,29,0,0,1,78.9,47.6,29.39,29.39,0,0,1,50.93,77V87.74A40.19,40.19,0,1,0,15.52,69,40.79,40.79,0,0,0,30.85,83.19a6.53,6.53,0,0,1,.87-1.08,6.66,6.66,0,0,1,9.38,0h0a6.73,6.73,0,0,1,2,4.69,6.62,6.62,0,0,1-2,4.69v0A6.65,6.65,0,0,1,29.76,86.8a9.06,9.06,0,0,1,.07-.91Zm9.24-1.75a3.78,3.78,0,0,0-6.44,2.66,3.82,3.82,0,0,0,3.78,3.78,3.7,3.7,0,0,0,2.66-1.12h0a3.75,3.75,0,0,0,1.09-2.66,3.85,3.85,0,0,0-1.09-2.66Z"/><path class="cls-2" d="M34.8,42.25a5.52,5.52,0,1,1,5.5-5.53,5.51,5.51,0,0,1-5.5,5.53,8.27,8.27,0,0,0-8.26,8.25v3.12a24.47,24.47,0,0,0,2,5.14h.87l.18,1.75A23.89,23.89,0,0,0,39.14,69L40,61.11a4.14,4.14,0,0,1-2.38-3.75V49.1A11.91,11.91,0,0,1,39,43.44a8.1,8.1,0,0,0-4.2-1.19ZM71.3,50.5A8.25,8.25,0,0,0,63,42.25a5.52,5.52,0,1,1,5.53-5.53A5.53,5.53,0,0,1,63,42.25a8.2,8.2,0,0,0-4.2,1.19,12,12,0,0,1,1.47,5.66v8.26a4.14,4.14,0,0,1-2.38,3.75l.81,8.33a23.65,23.65,0,0,0,9.34-7.07l.35-3.61h1.51a1.49,1.49,0,0,0,.56-.14,18.27,18.27,0,0,0,.8-1.68Zm-21-11v9.48a1.38,1.38,0,0,1-2.76,0V39.45a9.6,9.6,0,0,0-8.26,9.48v8.26a1.36,1.36,0,0,0,1.36,1.36h3.12l1,12.29a24,24,0,0,0,4.76.49A29.32,29.32,0,0,0,53,71.08l1-12.53h3.08a1.37,1.37,0,0,0,1.4-1.36V48.93a9.61,9.61,0,0,0-8.26-9.48Zm-1.4-.14a6.88,6.88,0,1,1,6.89-6.9,6.88,6.88,0,0,1-6.89,6.9Z"/></svg>