<svg id="Layer_1" data-name="Layer 1" xmlns="http://www.w3.org/2000/svg" viewBox="0 0 850 515"><defs><style>.cls-1{fill:#e4a32b;}.cls-2{fill:#fff;}</style></defs><title>icon-health-check</title><rect class="cls-1" width="850" height="515"/><path class="cls-2" d="M485.54,156.53v-6.38A16.21,16.21,0,0,0,469.26,134H446.93a25.89,25.89,0,0,0,3.19-12.6,27.28,27.28,0,0,0-54.55-.16A26.62,26.62,0,0,0,398.76,134h-18a16.07,16.07,0,0,0-16.12,16.11v6.38h-37.8a17.43,17.43,0,0,0-17.39,17.39V403.45a17.43,17.43,0,0,0,17.39,17.39H523.18a17.43,17.43,0,0,0,17.39-17.39V173.92a17.43,17.43,0,0,0-17.39-17.39Zm-141,250.27a18.38,18.38,0,0,1-18.35-18.5V312.21h47.54a12.26,12.26,0,0,0,9.89-5.74l3.51-5.9,10.2,49.77c2.88,13.55,17.87,8.29,19.31-.32l12.28-79.6,10.84,76.41c1.44,8.61,13.72,15.95,18.83,2.23l14-36.85h51.21V388.3a18.38,18.38,0,0,1-18.35,18.5Zm62.05-285.36a16.27,16.27,0,0,1,32.54-.16c0,5.26-2.4,10.21-6.22,12.76H412.64c-3.67-2.55-6.06-7.5-6.06-12.6Zm-80.4,70a17.43,17.43,0,0,1,17.39-17.39h21.05A11.24,11.24,0,0,0,376,185.24h98.1a11.24,11.24,0,0,0,11.33-11.17h21.05a17.43,17.43,0,0,1,17.39,17.39V295.94H468a11.75,11.75,0,0,0-10.85,7.5l-1.75,4.63-14.84-85c-.95-5.59-5.74-9.1-11.48-9.1h0c-5.59,0-10.53,3.51-11.49,9.1l-12.92,71.46-4-19.3a11.77,11.77,0,0,0-9.25-9.1,11.91,11.91,0,0,0-12,5.27L364,295.94H326.18Z"/></svg>