<svg id="Layer_1" data-name="Layer 1" xmlns="http://www.w3.org/2000/svg" viewBox="0 0 850 515"><defs><style>.cls-1{fill:#e4a32b;}.cls-2{fill:#fff;}</style></defs><title>icon-resources</title><rect class="cls-1" width="850" height="515"/><path class="cls-2" d="M353.93,331.12c7.66,7.65,15.16,15.15,22.65,22.49V331.12ZM546.62,386c0-8.78.16-17.23,0-25.68a6.75,6.75,0,0,0-7-6.38H480.27c-4.15,0-6.86,2.87-7,7-.16,2.72,0,5.43,0,8.14V386ZM473.25,280.23A36.69,36.69,0,1,0,510.1,243.7a36.76,36.76,0,0,0-36.85,36.53ZM303.53,129V349.14h41.63c-6.54-6.54-12.6-12.92-19-19a13.91,13.91,0,0,1-4.63-10.85c.16-52.16,0-104.32,0-156.48,0-10.21,5.42-15.63,15.63-15.63H473.09V129Zm36.68,36.69V312.61h40c9.09,0,14.84,5.74,14.84,14.84v40h59.34c.47-4.46.31-8.93,1.27-13.08a25.09,25.09,0,0,1,24.09-18.82c6.7-.16,13.24,0,19.94,0-29.83-6.7-45.46-31.26-45.3-55.19a53.39,53.39,0,0,1,11.64-33.82c11.17-14,26-20.73,43.71-21.37V165.7Zm217.9,238.79H461.76c-8.93-3.51-6.7-11.32-7-18.34h-3.35c-21.21,0-42.43-.16-63.64,0A12.46,12.46,0,0,1,378,382c-4-4.15-8.3-8.45-12.6-12.44a6.52,6.52,0,0,0-4.15-1.76c-20.26-.16-40.52-.16-60.77-.16a38.72,38.72,0,0,1-4.31-.16c-7-1.43-11.33-6.86-11.33-14.83V125.18a26,26,0,0,1,.32-3.66c1.28-5.91,5.27-9.1,10.53-11H480.59c.31.16.47.32.79.48,7,2.55,10.21,7,10.21,14.51V147a3.43,3.43,0,0,0,1,.16h20.58c9.57,0,15.15,5.58,15.15,15.31v63c0,2.23.64,3.19,2.71,4.15,38.28,16,45.94,66.83,14,93.47a57.69,57.69,0,0,1-25.52,12.28c6.54.16,13.08.16,19.46.16,15.15,0,26,10.85,26,26,.16,10.37-.16,20.74.16,30.95.16,5.74-1.76,9.73-7,12Z"/></svg>