<svg id="Layer_1" data-name="Layer 1" xmlns="http://www.w3.org/2000/svg" viewBox="0 0 99 98"><defs><style>.cls-1{fill:#e4a229;}.cls-2{fill:#dec7b6;}.cls-3{fill:#feece1;}.cls-4{fill:#eed8c9;}.cls-5{fill:#1f1c1d;}</style></defs><title>icon-startup</title><path class="cls-1" d="M51,9.86a32.21,32.21,0,0,1,8.32,9.53H42.61A32.2,32.2,0,0,1,51,9.86Z"/><path class="cls-1" d="M68.09,58.56a14.94,14.94,0,0,1-2.47,9.63L65,63.92a4.23,4.23,0,0,0-4.2-3.63H59.59l3.73-11.62a15.13,15.13,0,0,1,4.77,9.89Z"/><path class="cls-1" d="M33.08,58.56a15.16,15.16,0,0,1,4.8-9.89l3.73,11.62H40.34a4.19,4.19,0,0,0-4.16,3.63l-.64,4.27a15.37,15.37,0,0,1-2.46-9.63Z"/><path class="cls-2" d="M43.87,77.44a9.86,9.86,0,0,0-9.72,2.37,11.44,11.44,0,0,0-8.63-4,12.18,12.18,0,0,0-3,.43A14,14,0,0,0,8.6,64.52H7.2v2.8H8.6A11.24,11.24,0,0,1,19.79,77.41a11.15,11.15,0,0,0-3.46,3.17A14.16,14.16,0,0,0,7.2,77.21V80A11.34,11.34,0,0,1,18.49,91.3h2.8a13.93,13.93,0,0,0-3-8.63,9.08,9.08,0,0,1,3.53-3.23h0a8.68,8.68,0,0,1,3.63-.83,8.49,8.49,0,0,1,6.89,3.56,10.47,10.47,0,0,0-1.23,4.9H34A7.59,7.59,0,0,1,35.18,83h0l.07-.07a7,7,0,0,1,8.66-2.5v3.7h2.8V72.85h-2.8Z"/><path class="cls-2" d="M90.4,67.32h1.4v-2.8H90.4A14,14,0,0,0,76.51,76.21a12,12,0,0,0-3-.43,11.44,11.44,0,0,0-8.63,4,9.86,9.86,0,0,0-9.72-2.37V72.85h-2.8V84.14h2.8v-3.7a7,7,0,0,1,8.66,2.5l.07.07h0A7.59,7.59,0,0,1,65,87.07h2.8a10.47,10.47,0,0,0-1.23-4.9,8.42,8.42,0,0,1,10.52-2.73,0,0,0,0,1,0,0,8.5,8.5,0,0,1,3.53,3.19,13.93,13.93,0,0,0-3,8.63h2.8A11.34,11.34,0,0,1,91.8,80v-2.8a14.16,14.16,0,0,0-9.13,3.37,11.15,11.15,0,0,0-3.46-3.17A11.24,11.24,0,0,1,90.4,67.32Z"/><rect class="cls-3" x="22.72" y="81.44" width="2.8" height="2.8"/><rect class="cls-4" x="7.2" y="58.86" width="2.83" height="2.83"/><rect class="cls-3" x="86.17" y="71.55" width="2.8" height="2.83"/><rect class="cls-4" x="74.88" y="65.92" width="2.83" height="2.83"/><rect class="cls-3" x="59.36" y="88.47" width="2.83" height="2.83"/><rect class="cls-4" x="88.97" y="56.06" width="2.83" height="2.8"/><path class="cls-5" d="M49.5,29.25a5.65,5.65,0,1,1-5.63,5.66,5.63,5.63,0,0,1,5.63-5.66Zm0,14.12A8.46,8.46,0,1,0,41,34.91a8.48,8.48,0,0,0,8.46,8.46Z"/><path class="cls-5" d="M18.49,91.3h2.8a13.93,13.93,0,0,0-3-8.63,9.08,9.08,0,0,1,3.53-3.23h0a8.68,8.68,0,0,1,3.63-.83,8.49,8.49,0,0,1,6.89,3.56,10.47,10.47,0,0,0-1.23,4.9H34A7.59,7.59,0,0,1,35.18,83h0l.07-.07a7,7,0,0,1,8.66-2.5v3.7h2.8V72.85h-2.8v4.59a9.8,9.8,0,0,0-9.72,2.4,11.37,11.37,0,0,0-8.63-4.06,12.18,12.18,0,0,0-3,.43A14,14,0,0,0,8.6,64.52H7.2v2.8H8.6A11.24,11.24,0,0,1,19.79,77.41a11.15,11.15,0,0,0-3.46,3.17A14.16,14.16,0,0,0,7.2,77.21V80A11.34,11.34,0,0,1,18.49,91.3Z"/><path class="cls-5" d="M76.51,76.21a12,12,0,0,0-3-.43,11.44,11.44,0,0,0-8.63,4,9.86,9.86,0,0,0-9.72-2.37V72.85h-2.8V84.14h2.8v-3.7a7,7,0,0,1,8.66,2.5l.07.07h0A7.59,7.59,0,0,1,65,87.07h2.8a10.47,10.47,0,0,0-1.23-4.9,8.42,8.42,0,0,1,10.52-2.73,0,0,0,0,1,0,0,8.5,8.5,0,0,1,3.53,3.19,13.93,13.93,0,0,0-3,8.63h2.8A11.34,11.34,0,0,1,91.8,80v-2.8a14.16,14.16,0,0,0-9.13,3.37,11.15,11.15,0,0,0-3.46-3.17A11.24,11.24,0,0,1,90.4,67.32h1.4v-2.8H90.4A14,14,0,0,0,76.51,76.21Z"/><rect class="cls-5" x="22.72" y="81.44" width="2.8" height="2.8"/><rect class="cls-5" x="7.2" y="58.86" width="2.83" height="2.83"/><rect class="cls-5" x="86.17" y="71.55" width="2.8" height="2.83"/><rect class="cls-5" x="74.88" y="65.92" width="2.83" height="2.83"/><rect class="cls-5" x="59.36" y="88.47" width="2.83" height="2.83"/><rect class="cls-5" x="88.97" y="56.06" width="2.83" height="2.8"/><path class="cls-5" d="M32,58.56a15.3,15.3,0,0,1,4.8-9.89l3.73,11.62H39.24a4.19,4.19,0,0,0-4.16,3.63l-.64,4.27A15.37,15.37,0,0,1,32,58.56Zm7.76-36.34H59.26a31.63,31.63,0,0,1,1.23,22.65l-.33,1h0L55.53,60.29H43.47L38.84,45.84h0l-.3-1a31.47,31.47,0,0,1,1.2-22.65ZM49.5,9.86a31.68,31.68,0,0,1,8.33,9.53H41.17A31.68,31.68,0,0,1,49.5,9.86ZM67,58.56a15.37,15.37,0,0,1-2.46,9.63l-.64-4.27a4.19,4.19,0,0,0-4.16-3.63H58.49l3.73-11.62A15.3,15.3,0,0,1,67,58.56ZM53.43,67.32H45.57l.87-4.23h6.12ZM35.41,73a1.61,1.61,0,0,0,.43-.07,1.5,1.5,0,0,0,1-1.16l1.07-7.43a1.39,1.39,0,0,1,1.36-1.23h4.3l-1.07,5.36a1.43,1.43,0,0,0,1.1,1.67,1,1,0,0,0,.3,0H55.13a1.41,1.41,0,0,0,1.43-1.4c0-.1,0-.2,0-.3l-1.07-5.36h4.3a1.36,1.36,0,0,1,1.36,1.23l1.07,7.43a1.5,1.5,0,0,0,1,1.16,1.61,1.61,0,0,0,.43.07,1.42,1.42,0,0,0,1-.43,18,18,0,0,0,0-25.45c-.46-.46-1-.9-1.46-1.33v0A34.48,34.48,0,0,0,50.33,7a1.41,1.41,0,0,0-1.66,0A34.48,34.48,0,0,0,35.84,45.74v0a18,18,0,0,0-2.76,25.31,18.94,18.94,0,0,0,1.33,1.47,1.42,1.42,0,0,0,1,.43Z"/><rect class="cls-5" x="42.44" y="47.6" width="2.83" height="2.8"/><rect class="cls-5" x="48.1" y="47.6" width="2.8" height="2.8"/><rect class="cls-5" x="53.73" y="47.6" width="2.83" height="2.8"/></svg>