<svg id="Layer_1" data-name="Layer 1" xmlns="http://www.w3.org/2000/svg" viewBox="0 0 70 91"><defs><style>.cls-1{fill:#e4a229;}</style></defs><title>pdf</title><path class="cls-1" d="M17.82,56.45c0-1.35-1-2.13-2.57-2.13a4.42,4.42,0,0,0-1.35.13v4.27a6.74,6.74,0,0,0,1.09.09c1.74,0,2.83-.87,2.83-2.36Z"/><path class="cls-1" d="M27.89,54.36a5.75,5.75,0,0,0-1.48.13V64a4.68,4.68,0,0,0,1.18.09c3,0,4.88-1.61,4.88-5.1,0-3-1.74-4.58-4.58-4.58Z"/><path class="cls-1" d="M46.68,4.75H14.42a8.55,8.55,0,0,0-8.54,8.54V44.9H5.05A3.45,3.45,0,0,0,1.6,48.34V69.27a3.46,3.46,0,0,0,3.45,3.45h.83v3.83a8.56,8.56,0,0,0,8.54,8.55h44A8.57,8.57,0,0,0,67,76.55V25Zm-36,47.39a25.82,25.82,0,0,1,4.44-.31A6.8,6.8,0,0,1,19.48,53a4.09,4.09,0,0,1,1.57,3.36,4.51,4.51,0,0,1-1.35,3.4A6.47,6.47,0,0,1,15,61.29a9.05,9.05,0,0,1-1.09,0v5.19H10.63ZM58.45,79.87h-44a3.32,3.32,0,0,1-3.31-3.32V72.72H52.18a3.48,3.48,0,0,0,3.44-3.45V48.34a3.48,3.48,0,0,0-3.44-3.44H11.11V13.29A3.31,3.31,0,0,1,14.42,10l30.3-.05V21.14a5.91,5.91,0,0,0,5.93,5.93h11l.13,49.48a3.32,3.32,0,0,1-3.32,3.32ZM23.14,66.35V52.14a26.44,26.44,0,0,1,4.45-.31c2.74,0,4.53.48,5.93,1.53A6.53,6.53,0,0,1,36,58.85a7.29,7.29,0,0,1-2.4,5.84C32,66,29.68,66.57,26.85,66.57a24.67,24.67,0,0,1-3.71-.22ZM46.6,57.94v2.65H41.41v5.85H38.09V51.92H47v2.7H41.41v3.32Z"/></svg>